<svg width="17" height="19" viewBox="0 0 17 19" fill="none" xmlns="http://www.w3.org/2000/svg">
<path d="M13.7917 3.40837L11.6834 5.02504L12.4417 7.57504L10.2501 6.06671L8.05839 7.57504L8.81672 5.02504L6.70839 3.40837L9.36672 3.33337L10.2501 0.833374L11.1334 3.33337L13.7917 3.40837ZM16.7084 9.16671L15.3417 10.2084L15.8334 11.8584L14.4167 10.8834L13.0001 11.8584L13.4917 10.2084L12.1251 9.16671L13.8417 9.12504L14.4167 7.50004L14.9917 9.12504L16.7084 9.16671ZM14.8084 13.2917C15.5001 13.225 16.2417 14.2084 15.8001 14.8334C15.5334 15.2084 15.2501 15.5584 14.9001 15.8917C11.6417 19.1667 6.36672 19.1667 3.11672 15.8917C-0.14161 12.6417 -0.14161 7.35837 3.11672 4.10837C3.45006 3.77504 3.80006 3.47504 4.17506 3.20837C4.80006 2.76671 5.78339 3.50837 5.71672 4.20004C5.49172 6.58337 6.29172 9.05837 8.12506 10.8834C9.95006 12.7167 12.4167 13.5167 14.8084 13.2917ZM13.4417 14.975C11.0834 14.8417 8.75006 13.8667 6.94172 12.0834C5.13339 10.2584 4.16672 7.91671 4.03339 5.56671C1.69172 8.18337 1.78339 12.2 4.29172 14.7167C6.80839 17.225 10.8251 17.3167 13.4417 14.975Z" fill="white"/>
</svg>
